<svg id="svg2" xmlns="http://www.w3.org/2000/svg" viewBox="0 0 47 47">
  <title>Artboard 15</title>
  <path id="path572" d="M6.6,7.25l.3-.4A22.6,22.6,0,0,1,23.5,0,22.8,22.8,0,0,1,39.9,6.6l.25.25A22.6,22.6,0,0,1,47,23.45a22.76,22.76,0,0,1-6.25,16.1l0,.05-.3.3,0,.05,0-.1-.25.25-.1.1.1-.05A22.86,22.86,0,0,1,23.5,47,22.6,22.6,0,0,1,6.9,40.15l-.65-.7A22.52,22.52,0,0,1,0,23.45,22.25,22.25,0,0,1,6.6,7.25M9.05,9A19.52,19.52,0,0,0,3,23.45a19.67,19.67,0,0,0,5.45,14l.6.65A19.66,19.66,0,0,0,23.5,44a19.82,19.82,0,0,0,14.5-6l.25-.25.3-.3a19.89,19.89,0,0,0,5.45-14A19.66,19.66,0,0,0,38.05,9h0A19.75,19.75,0,0,0,23.5,3,19.59,19.59,0,0,0,9.05,9" fill="#9d8aaa"/>
  <path id="path574" d="M9.05,9A19.59,19.59,0,0,1,23.5,3,19.75,19.75,0,0,1,38,9h0a19.66,19.66,0,0,1,6,14.45A19.89,19.89,0,0,1,38.55,37.5l-.3.3-.25.25a19.82,19.82,0,0,1-14.5,6,19.66,19.66,0,0,1-14.45-6l-.6-.65A19.67,19.67,0,0,1,3,23.45,19.52,19.52,0,0,1,9.05,9M6,23.45a16.74,16.74,0,0,0,4.7,12l.45.5A16.83,16.83,0,0,0,23.5,41a17,17,0,0,0,12.4-5.1l.45-.45a17,17,0,0,0,4.65-12A16.83,16.83,0,0,0,35.9,11.1,17,17,0,0,0,23.5,6a16.83,16.83,0,0,0-12.35,5.1A16.76,16.76,0,0,0,6,23.45" fill="#d4c4e9"/>
  <path id="path576" d="M6,23.45A16.76,16.76,0,0,1,11.15,11.1,16.83,16.83,0,0,1,23.5,6a17,17,0,0,1,12.4,5.1A16.83,16.83,0,0,1,41,23.45a17,17,0,0,1-4.65,12l-.45.45A17,17,0,0,1,23.5,41a16.83,16.83,0,0,1-12.35-5.1l-.45-.5A16.74,16.74,0,0,1,6,23.45M12,23v.3a3.87,3.87,0,0,0,1.15,2.85,4.09,4.09,0,0,0,3,1.25,3.89,3.89,0,0,0,2.9-1.25A3.74,3.74,0,0,0,20.3,23.3V23H12m23.15,0h-8.3l-.05.3A3.87,3.87,0,0,0,28,26.15,4.27,4.27,0,0,0,31,27.4a3.83,3.83,0,0,0,2.85-1.25,3.65,3.65,0,0,0,1.3-2.85V23M29.4,29.7a1,1,0,0,0-.5-.4.85.85,0,0,0-.7,0l-.4.45a4.17,4.17,0,0,1-1.1,1.4,5,5,0,0,1-3.15,1,5.16,5.16,0,0,1-3.25-1,3,3,0,0,1-1-1.35L19,29.35l-.75-.1a.77.77,0,0,0-.45.45l-.1.6a4.2,4.2,0,0,0,1.6,2.15,6.84,6.84,0,0,0,4.3,1.35,6.69,6.69,0,0,0,4.2-1.35A5.75,5.75,0,0,0,29.4,30.4v-.7" fill="#bfa9cf"/>
  <path id="path578" d="M29.4,29.7v.7a5.75,5.75,0,0,1-1.65,2.05,6.69,6.69,0,0,1-4.2,1.35,6.84,6.84,0,0,1-4.3-1.35,4.2,4.2,0,0,1-1.6-2.15l.1-.6a.77.77,0,0,1,.45-.45l.75.1.35.45a3,3,0,0,0,1,1.35,5.16,5.16,0,0,0,3.25,1,5,5,0,0,0,3.15-1,4.17,4.17,0,0,0,1.1-1.4l.4-.45a.85.85,0,0,1,.7,0,1,1,0,0,1,.5.4M12,23h8.3v.3a3.74,3.74,0,0,1-1.25,2.85,3.89,3.89,0,0,1-2.9,1.25,4.09,4.09,0,0,1-3-1.25A3.87,3.87,0,0,1,12,23.3V23m23.15,0v.3a3.65,3.65,0,0,1-1.3,2.85A3.83,3.83,0,0,1,31,27.4,4.27,4.27,0,0,1,28,26.15,3.87,3.87,0,0,1,26.8,23.3l.05-.3h8.3" fill="#7a6688"/>
</svg>
